<?xml version="1.0" standalone="no"?>
<!DOCTYPE svg PUBLIC "-//W3C//DTD SVG 20010904//EN"
 "http://www.w3.org/TR/2001/REC-SVG-20010904/DTD/svg10.dtd">
<svg version="1.0" xmlns="http://www.w3.org/2000/svg"
 width="64.000000pt" height="64.000000pt" viewBox="0 0 64.000000 64.000000"
 preserveAspectRatio="xMidYMid meet">

<g transform="translate(0.000000,64.000000) scale(0.100000,-0.100000)"
fill="#000000" stroke="none">
<path d="M282 586 c-128 -24 -238 -48 -244 -54 -8 -8 -8 -30 0 -81 7 -38 13
-109 14 -158 1 -48 3 -71 5 -50 l4 37 270 0 270 0 -3 -127 -3 -128 -265 0
-265 0 -6 70 -5 70 -2 -72 c-2 -62 1 -74 17 -83 12 -6 115 -10 265 -10 233 0
247 1 266 20 18 18 20 33 20 194 0 145 -3 177 -16 190 -13 13 -48 16 -217 17
l-202 1 190 34 c105 19 200 36 212 39 19 4 21 10 16 43 -9 63 -25 87 -58 89
-17 0 -135 -18 -263 -41z m286 22 c5 -7 13 -32 17 -54 6 -39 5 -42 -22 -49
-25 -6 -33 -1 -71 42 l-43 48 48 12 c26 6 51 12 54 12 4 1 11 -5 17 -11z m-95
-63 c40 -47 40 -49 -20 -59 -29 -5 -36 0 -72 42 -40 46 -40 47 -18 54 53 15
72 9 110 -37z m-110 -20 c40 -47 40 -49 -20 -59 -29 -5 -36 0 -72 42 -44 51
-41 60 24 61 25 1 38 -8 68 -44z m-78 -63 c-2 -2 -20 -8 -41 -12 -43 -10 -49
-6 -95 51 l-30 38 43 9 c43 9 43 9 85 -37 22 -25 40 -48 38 -49z m-118 -23
c-7 -4 -33 -10 -59 -13 -51 -8 -54 -4 -59 59 -3 37 1 44 24 47 16 3 33 -8 64
-41 26 -30 37 -48 30 -52z m13 -44 c0 -3 -12 -27 -27 -55 -25 -44 -32 -50 -60
-50 l-33 0 0 55 0 55 60 0 c33 0 60 -2 60 -5z m87 -50 c-31 -55 -31 -55 -80
-55 l-49 0 23 38 c13 20 28 45 33 55 8 12 24 17 58 17 l47 0 -32 -55z m114 3
c-28 -51 -32 -53 -75 -56 -25 -2 -46 0 -46 3 0 4 12 29 28 56 26 48 28 49 75
49 l49 0 -31 -52z m111 0 c-28 -51 -31 -53 -76 -56 -51 -3 -52 -2 -31 33 8 14
22 36 30 50 13 21 23 25 61 25 l46 0 -30 -52z m108 -3 l0 -55 -60 0 -61 0 17
33 c34 65 46 77 75 77 28 0 29 -1 29 -55z"/>
<path d="M270 211 c-11 -22 -14 -90 -4 -115 9 -23 39 -20 90 10 60 35 57 59
-11 96 -60 33 -62 33 -75 9z m76 -27 c24 -14 44 -30 44 -34 0 -9 -87 -60 -101
-60 -5 0 -9 27 -9 60 0 36 4 60 11 60 6 0 30 -12 55 -26z"/>
<path d="M51 184 c0 -11 3 -14 6 -6 3 7 2 16 -1 19 -3 4 -6 -2 -5 -13z"/>
</g>
</svg>
