<svg width="938.75919" height="806.74836" xmlns="http://www.w3.org/2000/svg" data-name="Layer 1">

 <g>
  <title>Layer 1</title>
  <circle id="svg_1" fill="#69f0ae" r="75.36532" cy="147.52379" cx="75.36532"/>
  <path id="svg_2" fill="#e6e6e6" d="m874.36659,632.38696a136.64937,136.64937 0 0 1 -6.38326,37.7743c-0.08893,0.28379 -0.18213,0.56334 -0.2753,0.84715l-23.82178,0c0.02541,-0.25416 0.05085,-0.538 0.07627,-0.84715c1.5884,-18.26028 10.74606,-129.39752 -0.20334,-148.4033c0.95728,1.54182 32.45422,52.60786 30.60741,110.629z"/>
  <path id="svg_3" fill="#e6e6e6" d="m872.57915,670.16126c-0.19909,0.28379 -0.40664,0.56758 -0.61842,0.84715l-17.87058,0c0.13555,-0.24144 0.29227,-0.52523 0.4744,-0.84715c2.95233,-5.32856 11.69063,-21.25916 19.80207,-37.7743c8.71716,-17.74774 16.71423,-36.169 16.04074,-42.836c0.20754,1.50367 6.23923,47.34281 -17.82821,80.6103z"/>
  <rect id="svg_4" fill="#e6e6e6" height="2.24072" width="685" y="669.38465" x="253.75919"/>
  <path id="svg_5" fill="#ffb8b8" d="m692.22323,739.35498l3.32758,-27.45259l94.00433,-24.125l-10.81466,-32.444c7.53317,-21.60748 20.759,-32.2 44.92242,-21.62931l41.56416,25.82015a26.533,26.533 0 0 1 12.49331,23.97036l0,0a26.51238,26.51238 0 0 1 -15.09493,22.535c-46.53041,22.05608 -105.83473,30.49585 -170.40221,33.32539z"/>
  <path id="svg_6" fill="#2f2e41" d="m698.0465,747.67395l-29.11638,-4.15948l-27.23329,5.55781a11.76263,11.76263 0 0 1 -14.1045,-11.0354l0,0a11.76267,11.76267 0 0 1 4.67429,-9.88433l42.67473,-32.15219a19.2662,19.2662 0 0 1 24.95724,1.50982l10.62634,10.23277c-7.60426,4.71745 -13.25855,11.79578 -16.63793,21.62931q10.96223,6.02632 4.1595,18.30169z"/>
  <circle id="svg_7" fill="#ffb8b8" r="26.92727" cy="432.52561" cx="725.85545"/>
  <path id="svg_8" fill="#ffb8b8" d="m767.92582,485.6265l-60.31251,25.37284c4.90182,-24.6117 7.3447,-47.03168 0,-60.72845l38.6832,-4.57544c-1.9201,10.52596 7.86687,24.62227 21.62931,39.93105z"/>
  <path id="svg_9" fill="#ffb8b8" d="m665.60253,738.52309l-22.46121,-1.6638c-13.76,-57.37964 -20.805,-111.61522 -17.73,-161.1123a27.99719,27.99719 0 0 1 28.55155,-26.31008l0,0a27.95972,27.95972 0 0 1 18.63912,7.698l29.04629,27.64082a119.53382,119.53382 0 0 1 29.4304,43.81895c8.2263,21.54543 5.27317,33.62388 -14.36545,31.57272a48.46037,48.46037 0 0 1 -31.55432,-16.7762l-21.22016,-24.66128l1.66378,119.79317z"/>
  <path id="svg_10" fill="#2f2e41" d="m648.20859,806.70739l0,0a19.21665,19.21665 0 0 1 -16.93815,-25.37662l4.38389,-12.8594l3.32759,-32.444c5.12583,-10.45979 12.38523,-8.895 20.79742,-0.8319c5.348,-0.52506 6.49594,-5.87278 5.82327,-13.31035l16.86453,22.70225a13.53384,13.53384 0 0 1 1.45034,13.68454l-16.97287,37.23082a19.21666,19.21666 0 0 1 -18.73602,11.20466z"/>
  <path id="svg_11" fill="#2f2e41" d="m860.6823,656.58126c-30.78017,17.46983 -40.42721,17.97672 -71.12716,30.36423l-26.6207,-14.97414c-31.26416,11.56034 -53.19528,-4.287 -76.95044,-27.86854c15.54546,-25.89253 8.67013,-59.53966 18.30173,-59.06466l115.21769,36.1875l4.99138,12.47846l36.1875,22.87715z"/>
  <path id="svg_12" fill="#69f0ae" d="m823.6629,629.54462c-40.6823,17.60906 -84.48565,-1.03464 -121.87286,-42.01078l-24.75581,-99.97937a8.344,8.344 0 0 1 6.42773,-10.32486l28.72679,-5.74536l14.14224,22.46121l28.28449,-24.9569l30.03793,9.8201a23.19158,23.19158 0 0 1 15.63348,18.02052l23.37601,132.71544z"/>
  <path id="svg_13" opacity="0.2" d="m759.04408,714.30253l0,0a14.69073,14.69073 0 0 1 -5.97562,-23.22858l19.01689,-22.43017l13.31034,7.48707l-6.854,27.943a14.69072,14.69072 0 0 1 -19.49761,10.22868z"/>
  <path id="svg_14" fill="#ffb8b8" d="m759.04408,710.97495l0,0a14.69073,14.69073 0 0 1 -5.97562,-23.22858l19.01685,-22.43019l13.31034,7.48707l-6.854,27.943a14.69073,14.69073 0 0 1 -19.49757,10.2287z"/>
  <path id="svg_15" fill="#69f0ae" d="m788.72324,679.45842l-19.96552,-13.31034l29.11638,-77.3664l-10.81465,-108.9785l9.86544,6.1659a46.09758,46.09758 0 0 1 20.72563,29.82761l15.99514,77.97633c-6.99882,35.9419 -18.66426,67.5654 -44.92242,85.6854z"/>
  <polygon id="svg_16" opacity="0.2" points="776.661 555.922 786.644 605.836 778.433 635.028 776.661 555.922"/>
  <path id="svg_17" fill="#2f2e41" d="m699.52111,430.21657s-15.517,-50.78312 31.90729,-40.13255c7.3558,1.652 13.71081,5.92791 18.76625,11.52072a4.56981,4.56981 0 0 0 3.57247,1.45942c7.57575,0 12.25524,27.07165 -2.89626,38.97641c0,0 3.0916,-16.01961 -2.528,-21.47812a12.0563,12.0563 0 0 1 -2.5013,-3.22058c-3.65758,-7.37809 -15.95243,-9.79984 -24.432,-9.17173c-4.329,0.32067 -4.70747,7.8684 -9.4997,6.81418c-10.90415,-2.3988 -14.38487,10.23286 -12.38875,15.23225z"/>
  <path id="svg_18" fill="#e6e6e6" d="m747.25414,505.5904l-0.3135,2.29926l-1.93792,14.18773l-3.17365,23.23436l-0.79455,5.81721a1.85307,1.85307 0 0 1 -1.83645,1.60276l-21.16309,0a1.85358,1.85358 0 0 1 -1.83647,-1.59825l-0.80823,-5.82172l-3.22718,-23.23436l-1.97213,-14.19807l-0.31689,-2.2845a1.85321,1.85321 0 0 1 1.83531,-2.10888l33.70831,0a1.85417,1.85417 0 0 1 1.83644,2.10446z"/>
  <path id="svg_19" fill="#3f3d56" d="m713.94258,497.33038l29.35142,0a1.85356,1.85356 0 0 1 1.85356,1.85356l0,2.44864a1.85351,1.85351 0 0 1 -1.85351,1.85351l-29.35142,0a1.85356,1.85356 0 0 1 -1.85356,-1.85356l0,-2.44863a1.85351,1.85351 0 0 1 1.85351,-1.85352z"/>
  <path id="svg_20" fill="#3f3d56" d="m749.90577,506.56395a196.18942,196.18942 0 0 1 -42.57495,0a1.85342,1.85342 0 0 1 -1.85346,-1.85341l0,0l0,-2.44879a1.85343,1.85343 0 0 1 1.85346,-1.85341a174.44189,174.44189 0 0 0 42.57495,0a1.85344,1.85344 0 0 1 1.85341,1.85341l0,2.44879a1.85344,1.85344 0 0 1 -1.85341,1.85341z"/>
  <circle id="svg_21" fill="#fff" r="8" cy="527.00841" cx="727.75919"/>
  <path id="svg_22" fill="#ffb8b8" d="m748.3258,543.8388l0,0a14.69073,14.69073 0 0 1 -18.04151,15.80438l-28.59415,-6.865l0.68373,-15.25628l28.0328,-6.47708a14.69073,14.69073 0 0 1 17.91913,12.79398z"/>
  <path id="svg_23" fill="#69f0ae" d="m709.69306,555.50582l-77.1686,1.92921a19.16715,19.16715 0 0 1 -19.45354,-21.8718l0,0a19.16712,19.16712 0 0 1 5.88033,-11.28657l36.33349,-33.9894a48.51883,48.51883 0 0 1 24.20448,-12.25587l12.734,-2.38762l7.48707,56.569l-43.25863,-4.99138l50.7457,5.82328l2.4957,22.46115z"/>
  <path id="svg_24" fill="#2f2e41" d="m608.03028,721.50098l-197.00726,0a6.60576,6.60576 0 0 1 -6.60576,-6.60576l0,0q107.12263,-12.44971 210.21878,0l0,0a6.60576,6.60576 0 0 1 -6.60576,6.60576z"/>
  <path id="svg_25" fill="#3f3d56" d="m614.63604,715.28379l-210.21878,-0.38861l24.36362,-40.99461l0.11657,-0.19429l0,-90.34741a8.34976,8.34976 0 0 1 8.35046,-8.35046l143.39176,0a8.34976,8.34976 0 0 1 8.35046,8.35046l0,90.96916l25.64591,40.95576z"/>
  <path id="svg_26" fill="#fff" d="m437.05751,580.83703a2.72307,2.72307 0 0 0 -2.72,2.72l0,82.37778a2.7232,2.7232 0 0 0 2.72,2.72l144.93828,0a2.72333,2.72333 0 0 0 2.72,-2.72l0,-82.37776a2.7232,2.7232 0 0 0 -2.72,-2.72l-144.93828,-0.00002z"/>
  <path id="svg_27" fill="#2f2e41" d="m438.01006,679.53494a1.169,1.169 0 0 0 -1.0591,0.67849l-7.50719,16.32013a1.16568,1.16568 0 0 0 1.05891,1.653l157.87222,0a1.1656,1.1656 0 0 0 1.0424,-1.68712l-8.16006,-16.32012a1.15981,1.15981 0 0 0 -1.0424,-0.64434l-142.20478,-0.00004z"/>
  <circle id="svg_28" fill="#fff" r="1.74859" cy="577.72843" cx="508.94379"/>
  <path id="svg_29" fill="#2f2e41" d="m493.42623,701.29511a1.16751,1.16751 0 0 0 -1.1255,0.86253l-1.8831,6.99434a1.16562,1.16562 0 0 0 1.1255,1.46892l35.81246,0a1.16545,1.16545 0 0 0 1.10121,-1.54709l-2.421,-6.99434a1.16634,1.16634 0 0 0 -1.10159,-0.78436l-31.50798,0z"/>
  <polygon id="svg_30" fill="#2f2e41" points="588.99 672.346 588.99 673.901 428.781 673.901 428.901 673.706 428.901 672.346 588.99 672.346"/>
  <path id="svg_31" fill="#e6e6e6" d="m360.90153,620.50679a175.14542,175.14542 0 0 0 8.18151,48.41582c0.114,0.36373 0.23344,0.722 0.35286,1.0858l30.53269,0c-0.03257,-0.32576 -0.06518,-0.68949 -0.09775,-1.0858c-2.03588,-23.40445 -13.77337,-165.85054 0.26061,-190.21049c-1.22692,1.97616 -41.59696,67.42819 -39.22992,141.79467z"/>
  <path id="svg_32" fill="#e6e6e6" d="m363.19259,668.92261c0.25518,0.36373 0.5212,0.72747 0.79265,1.0858l22.905,0c-0.17373,-0.30946 -0.3746,-0.67319 -0.608,-1.0858c-3.784,-6.82969 -14.984,-27.24816 -25.38058,-48.41582c-11.17289,-22.74753 -21.42285,-46.35825 -20.55963,-54.90349c-0.26614,1.92729 -7.99703,60.67988 22.85056,103.31931z"/>
  <path id="svg_33" fill="#3f3d56" d="m414.85259,175.15897l12.41349,-9.92842c-9.64348,-1.06394 -13.60582,4.19541 -15.22744,8.35823c-7.53388,-3.12835 -15.73541,0.97151 -15.73541,0.97151l24.83709,9.01675a18.79465,18.79465 0 0 0 -6.28773,-8.41807z"/>
  <path id="svg_34" fill="#3f3d56" d="m788.73672,124.05368l12.41349,-9.92841c-9.64349,-1.06394 -13.60582,4.19541 -15.22744,8.35823c-7.53389,-3.12835 -15.73541,0.97151 -15.73541,0.97151l24.83709,9.01674a18.79483,18.79483 0 0 0 -6.28773,-8.41807z"/>
  <path id="svg_35" fill="#3f3d56" d="m717.25567,255.80875l12.41348,-9.92842c-9.64348,-1.06394 -13.60581,4.19541 -15.22743,8.35823c-7.53389,-3.12835 -15.73542,0.97151 -15.73542,0.97151l24.8371,9.01674a18.79481,18.79481 0 0 0 -6.28773,-8.41806z"/>
  <ellipse id="svg_36" transform="rotate(-10.2205 -173.908 14.4814)" fill="#e6e6e6" ry="228.69277" rx="112.0821" cy="287.06194" cx="146.10465"/>
  <path id="svg_37" fill="#3f3d56" d="m171.03601,183.14935q14.78775,40.21121 26.31876,81.51807q11.509,41.26774 19.68957,83.36863q8.18007,42.08713 12.9707,84.73824q4.767,42.57644 6.1255,85.44331q1.35042,42.82083 -0.7457,85.65769q-0.258,5.24814 -0.56839,10.49347c-0.21056,3.58181 5.36184,3.56959 5.57167,0q2.52606,-42.97206 1.585,-86.05062q-0.94624,-42.83215 -5.3194,-85.49687q-4.38378,-42.78927 -12.14609,-85.146q-7.767,-42.33823 -18.91259,-83.9628q-11.13864,-41.57793 -25.61467,-82.16468q-1.76623,-4.94872 -3.58171,-9.87963c-1.22732,-3.33733 -6.6142,-1.89487 -5.37265,1.48117l0,0.00002z"/>
  <path id="svg_38" fill="#3f3d56" d="m209.42759,288.60446l24.68456,-54.8093l6.95744,-15.44818a2.87134,2.87134 0 0 0 -0.99943,-3.81155a2.80754,2.80754 0 0 0 -3.81155,0.99942l-24.6846,54.80933l-6.95742,15.44815a2.87134,2.87134 0 0 0 0.99943,3.81155a2.80754,2.80754 0 0 0 3.81155,-0.99942l0.00002,0z"/>
  <path id="svg_39" fill="#3f3d56" d="m214.88187,326.05459l-56.28535,-21.10324l-15.86421,-5.948a2.80924,2.80924 0 0 0 -3.42691,1.94574a2.84665,2.84665 0 0 0 1.94574,3.42691l56.28534,21.10318l15.86421,5.948a2.80924,2.80924 0 0 0 3.42691,-1.94574a2.84663,2.84663 0 0 0 -1.94573,-3.42691l0,0.00006z"/>
  <path id="svg_40" fill="#e6e6e6" d="m171.05177,625s67.78868,-22.28669 130.93431,0"/>
  <path id="svg_41" fill="#69f0ae" d="m474.37747,614.44063c13.43289,-0.13986 26.86407,-0.38 40.29636,-0.5625q6.717,-0.09126 13.43431,-0.16c3.85856,-0.04017 3.86843,-6.04028 0,-6c-13.43289,0.13986 -26.86407,0.38 -40.29636,0.5625q-6.717,0.09124 -13.43431,0.16c-3.85856,0.04017 -3.86843,6.04027 0,6z"/>
  <path id="svg_42" fill="#69f0ae" d="m474.37747,628.44063l54.29031,-0.5625l15.44036,-0.16c3.85858,-0.04 3.86842,-6.04008 0,-6l-54.29031,0.5625l-15.44036,0.16c-3.85858,0.04 -3.86842,6.04008 0,6z"/>
  <path id="svg_43" fill="#69f0ae" d="m474.37747,642.44063l54.29031,-0.5625l15.44036,-0.16c3.85858,-0.04 3.86842,-6.04008 0,-6l-54.29031,0.5625l-15.44036,0.16c-3.85858,0.04 -3.86842,6.04008 0,6z"/>
 </g>
</svg>